<svg width="40" height="50" viewBox="0 0 40 50" fill="none" xmlns="http://www.w3.org/2000/svg">
<g id="Component 1">
<g id="orange">
<rect id="Rectangle 1" x="37.1585" y="24.8936" width="2.84153" height="14.0426" fill="#1A1A1A"/>
<rect id="Rectangle 28" x="34.3169" y="24.8936" width="2.84153" height="14.0426" fill="#F2700E"/>
<rect id="Rectangle 36" x="2.84154" y="24.8936" width="2.84153" height="14.0426" fill="#FF830F"/>
<rect id="Rectangle 41" x="28.6339" y="19.3617" width="2.84153" height="19.5745" fill="#FF830F"/>
<rect id="Rectangle 42" x="31.4754" y="22.1277" width="2.84153" height="8.72341" fill="#FF830F"/>
<rect id="Rectangle 43" x="8.5246" y="19.3617" width="2.84153" height="8.29787" fill="#FF830F"/>
<rect id="Rectangle 44" x="11.1475" y="19.3617" width="3.06011" height="5.53192" fill="#FF830F"/>
<rect id="Rectangle 48" x="11.3661" y="27.6596" width="2.84153" height="2.76596" fill="#FF830F"/>
<rect id="Rectangle 46" x="19.8907" y="16.5958" width="5.68306" height="2.76596" fill="#FF830F"/>
<rect id="Rectangle 45" x="14.2077" y="16.5958" width="5.68306" height="5.53191" fill="#FF830F"/>
<rect id="Rectangle 47" x="14.2077" y="24.8936" width="5.68306" height="5.53191" fill="#FF830F"/>
<rect id="Rectangle 38" x="8.5246" y="30.4255" width="2.84153" height="14.0426" fill="#FF830F"/>
<rect id="Rectangle 39" x="11.3661" y="30.4255" width="8.52459" height="14.0426" fill="#FF830F"/>
<rect id="Rectangle 40" x="19.8907" y="19.3617" width="8.74317" height="22.3404" fill="#FF830F"/>
<rect id="Rectangle 37" x="5.68306" y="22.1277" width="2.84153" height="19.5745" fill="#FF830F"/>
<rect id="Rectangle 29" x="31.4754" y="30.8511" width="2.84153" height="10.8511" fill="#F2700E"/>
<rect id="Rectangle 30" x="28.6339" y="38.9362" width="2.84153" height="5.53192" fill="#F2700E"/>
<rect id="Rectangle 31" x="11.3661" y="44.4681" width="17.2678" height="2.76596" fill="#F2700E"/>
<rect id="Rectangle 32" x="19.8907" y="41.7021" width="8.74317" height="2.76596" fill="#F2700E"/>
<rect id="Rectangle 5" y="24.8936" width="2.84153" height="14.0426" fill="#1A1A1A"/>
<rect id="Rectangle 2" x="34.3169" y="38.9362" width="2.84153" height="2.76596" fill="#1A1A1A"/>
<rect id="Rectangle 4" x="34.3169" y="38.9362" width="2.84153" height="2.76596" fill="#1A1A1A"/>
<rect id="Rectangle 8" x="31.4754" y="41.7021" width="2.84153" height="2.76596" fill="#1A1A1A"/>
<rect id="Rectangle 11" x="28.6339" y="44.4681" width="2.84153" height="2.76596" fill="#1A1A1A"/>
<rect id="Rectangle 13" x="11.3661" y="47.2341" width="17.2678" height="2.76596" fill="#1A1A1A"/>
<rect id="Rectangle 14" x="14.2077" y="13.8298" width="11.3661" height="2.76596" fill="#1A1A1A"/>
<rect id="Rectangle 15" x="14.2077" y="13.8298" width="11.3661" height="2.76596" fill="#1A1A1A"/>
<rect id="Rectangle 12" x="8.5246" y="44.4681" width="2.84153" height="2.76596" fill="#1A1A1A"/>
<rect id="Rectangle 10" x="5.68306" y="41.7021" width="2.84153" height="2.76596" fill="#1A1A1A"/>
<rect id="Rectangle 18" x="5.68306" y="19.3617" width="2.84153" height="2.76596" fill="#1A1A1A"/>
<rect id="Rectangle 34" x="11.3661" y="24.8936" width="2.84153" height="2.76596" fill="#FAD6B0"/>
<rect id="Rectangle 35" x="8.5246" y="27.6596" width="2.84153" height="2.76596" fill="#FAD6B0"/>
<rect id="Rectangle 9" x="31.4754" y="19.3617" width="2.84153" height="2.76596" fill="#1A1A1A"/>
<rect id="Rectangle 19" x="19.8907" y="11.0638" width="2.84153" height="2.76596" fill="#1A1A1A"/>
<path id="Rectangle 20" d="M22.7322 8.29788H25.5738V11.0638H22.7322V8.29788Z" fill="#1A1A1A"/>
</g>
<g id="leaf">
<path id="Rectangle 25" d="M11.3661 5.53192H17.0492V8.29788H11.3661V5.53192Z" fill="#37B516"/>
<path id="Rectangle 26" d="M14.2077 2.76596H17.0492V5.53192H14.2077V2.76596Z" fill="#37B516"/>
<path id="Rectangle 27" d="M11.3661 2.76596H14.2076V5.53192H11.3661V2.76596Z" fill="#47E31E"/>
<rect id="Rectangle 22" x="17.0492" y="2.76596" width="2.84153" height="5.53192" fill="#1A1A1A"/>
<rect id="Rectangle 24" x="8.5246" y="2.76596" width="2.84153" height="5.53192" fill="#1A1A1A"/>
<rect id="Rectangle 21" x="11.3661" y="8.29788" width="8.52459" height="2.76596" fill="#1A1A1A"/>
<rect id="Rectangle 23" x="8.5246" width="8.52459" height="2.76596" fill="#1A1A1A"/>
</g>
<rect id="Rectangle 16" x="25.5738" y="16.5957" width="5.90164" height="2.76596" fill="#1A1A1A"/>
<rect id="Rectangle 33" x="14.2077" y="22.1277" width="5.68306" height="2.76596" fill="#FAD6B0"/>
<rect id="Rectangle 17" x="8.30602" y="16.5957" width="5.90164" height="2.76596" fill="#1A1A1A"/>
<rect id="Rectangle 3" x="34.3169" y="22.1277" width="2.84153" height="2.76596" fill="#1A1A1A"/>
<rect id="Rectangle 6" x="2.84154" y="22.1277" width="2.84153" height="2.76596" fill="#1A1A1A"/>
<rect id="Rectangle 7" x="2.84154" y="38.9362" width="2.84153" height="2.76596" fill="#1A1A1A"/>
</g>
</svg>
